<!-- https://thenounproject.com/iahmadali26/collection/airplane/?i=2096068 -->
<svg height='300px' width='300px'  fill="#000000" xmlns="http://www.w3.org/2000/svg" data-name="Layer 1" viewBox="0 0 100 100" x="0px" y="0px"><title>airplane</title><path d="M94.29,42.57a20.83,20.83,0,0,0-7.06-1.49H74.09a8.19,8.19,0,0,1-5.86-2.94l-26-35.2A8.22,8.22,0,0,0,36.37,0h-2.1a2.64,2.64,0,0,0-2.72,3.5L41,37.58a2.65,2.65,0,0,1-2.72,3.5H20.17a8.23,8.23,0,0,1-5.86-2.94L8.55,30.29a7.67,7.67,0,0,0-5.36-2.95A3.45,3.45,0,0,0,0,31V69a3.55,3.55,0,0,0,3.45,3.63,7.93,7.93,0,0,0,5.61-2.94l5.76-7.86a8.21,8.21,0,0,1,5.85-2.94H38.32A2.65,2.65,0,0,1,41,62.42L31.55,96.5a2.64,2.64,0,0,0,2.72,3.5h2.1a8.22,8.22,0,0,0,5.87-2.94l26-35.2a8.19,8.19,0,0,1,5.86-2.94H87.23a42.76,42.76,0,0,0,7.31-.76,6.5,6.5,0,0,0,2.79-1.86A8.81,8.81,0,0,0,100,50C100,45.1,94.29,42.57,94.29,42.57Z"></path></svg>
